PathFileType	4	(X/Y/Z)	PS_ngait_og_ss3.trc	
DataRate	CameraRate	NumFrames	NumMarkers	Units	OrigDataRate	OrigDataStartFrame	OrigNumFrames	
120.00	120.00	8	39	mm	120.00	578	130	
Frame#	Time	Sternum			Neck			RShoulder			LShoulder			Xiphoid			Thoracic			RAsis			LAsis			RPsis			LPsis			LThighSuperior			LThighInferior			LThighLateral			LShankSuperior			LShankInferior			LShankLateral			RThighSuperior			RThighInferior			RThighLateral			RShankSuperior			RShankInferior			RHeel			RToe			RMidfootMedial			RMidfootLateral			RHindfoot			RMidfootSuperior			RToeMedial			RToeLateral			LHeel			LToe			LMidfootMedial			LMidfootLateral			LHindfoot			LMidfootSuperior			LToeMedial			LToeLateral			Sacral			RShankLateral			
		X1	Y1	Z1	X2	Y2	Z2	X3	Y3	Z3	X4	Y4	Z4	X5	Y5	Z5	X6	Y6	Z6	X7	Y7	Z7	X8	Y8	Z8	X9	Y9	Z9	X10	Y10	Z10	X11	Y11	Z11	X12	Y12	Z12	X13	Y13	Z13	X14	Y14	Z14	X15	Y15	Z15	X16	Y16	Z16	X17	Y17	Z17	X18	Y18	Z18	X19	Y19	Z19	X20	Y20	Z20	X21	Y21	Z21	X22	Y22	Z22	X23	Y23	Z23	X24	Y24	Z24	X25	Y25	Z25	X26	Y26	Z26	X27	Y27	Z27	X28	Y28	Z28	X29	Y29	Z29	X30	Y30	Z30	X31	Y31	Z31	X32	Y32	Z32	X33	Y33	Z33	X34	Y34	Z34	X35	Y35	Z35	X36	Y36	Z36	X37	Y37	Z37	X38	Y38	Z38	X39	Y39	Z39	

66	0.542	770.60706	1432.51550	224.44753	609.43060	1533.70630	231.70720	657.63239	1522.04419	391.07285	635.71967	1526.35498	96.72266	803.57098	1272.66370	230.41420	528.36328	1315.93347	245.69647	721.67291	999.87006	370.77271	715.41571	1009.81372	95.58462	531.39594	1038.55627	297.82285	522.44885	1032.20032	193.33269	613.20776	842.15637	49.25242	604.20844	597.55670	94.57473	697.31177	690.82178	131.19310	538.86060	367.71829	96.40888	456.75815	183.44347	136.67685	530.22644	262.09204	170.79189	686.80963	809.23126	421.27304	773.79584	590.65161	388.73288	805.77209	754.42450	352.08731	807.98328	436.09265	396.78384	899.05548	198.97273	368.21594	873.84186	55.46132	303.53040	1165.89465	158.81779	357.41290	1089.36816	110.55474	292.95197	1076.30188	95.02158	407.13348	1029.74121	75.91914	390.45145	1026.83789	147.85507	341.72046	1128.00647	129.71928	302.60626	1118.26184	120.03684	405.17239	336.07611	69.70709	198.19196	648.24927	53.61380	157.24045	549.91571	35.63887	220.29486	540.86340	31.11775	100.34481	487.31412	29.76383	115.48895	524.72443	94.82574	170.19629	593.74921	34.51841	211.19421	586.82953	38.96629	107.50344	526.92242	1035.37830	245.57776	912.60437	337.81662	332.31262 
67	0.550	779.61542	1430.98315	226.20528	618.15192	1532.07385	233.91547	666.18988	1519.98376	393.15103	644.86096	1525.28003	98.92962	812.55249	1271.06042	231.82378	537.30530	1314.24646	246.84299	730.57709	997.87476	371.12646	724.18188	1008.30164	96.24271	540.26605	1036.85913	298.42242	531.18127	1030.69629	193.92242	621.14758	840.81470	49.64056	608.88916	597.27667	93.49662	705.30756	688.78778	131.42389	543.53156	366.69412	96.54401	458.34085	183.43295	136.62802	532.79901	261.14975	170.90974	696.52142	808.41443	421.86740	786.37146	590.66168	389.96542	815.93042	754.06787	352.55624	818.06793	435.16541	397.06525	905.61780	196.84038	366.57184	877.33325	55.78632	301.58203	1171.74731	151.79701	355.08176	1094.03918	105.08784	291.06891	1080.57300	90.63837	405.47021	1033.49536	72.82347	388.86462	1032.44458	144.27235	339.54681	1133.08850	123.28564	300.50516	1123.17725	114.58327	403.14310	336.45264	70.63234	198.63235	648.53363	53.11504	157.14050	550.47119	34.96563	219.66589	540.82343	31.23415	100.22205	487.08932	30.14788	115.77355	525.23187	94.81551	170.37236	593.91425	33.73846	210.87292	587.15002	38.98613	107.20930	535.72363	1033.77771	246.17242	921.05865	335.83459	331.73718 
68	0.558	788.89429	1429.75842	228.50557	627.00110	1530.43628	236.14980	674.72949	1517.86914	395.32993	654.03729	1524.22949	101.11161	821.56348	1269.52722	233.35106	546.22089	1312.55408	247.98830	739.83118	996.17908	371.66684	733.10138	1006.75519	97.07836	549.38885	1035.22205	299.34158	539.97571	1029.02136	194.53647	629.46057	839.33191	50.10008	614.41785	596.77930	92.87685	713.42535	686.84784	131.62750	548.21686	366.02435	97.23997	460.09775	183.96770	136.83418	536.17853	260.66406	171.51237	706.88586	807.80603	422.63483	799.15594	590.79480	391.02740	826.47351	754.07544	353.29974	827.77130	434.19656	397.21091	911.14258	194.67766	365.17743	879.26276	55.98975	300.61337	1176.69104	142.80428	351.93860	1097.13647	97.39658	288.72461	1083.55786	85.16162	403.38226	1036.16992	69.24340	387.32574	1037.17102	139.36899	336.92004	1136.98450	114.64533	297.93423	1127.14905	107.88702	400.72577	337.02115	71.99189	198.83485	648.86462	52.56881	157.07634	550.21039	35.42837	220.06467	541.03149	31.29683	100.37888	487.22137	30.37968	115.78419	525.92767	94.76668	170.49164	594.12714	33.89402	210.93690	587.33575	38.69210	107.25327	544.68225	1032.12170	246.93903	928.72095	333.30463	330.83347 
69	0.567	798.16382	1428.61328	230.83995	635.75171	1529.02087	238.69237	683.25671	1515.64099	397.55383	663.23590	1523.25317	103.45723	830.73358	1268.17712	235.11731	555.25403	1310.82141	249.07919	749.13983	994.38953	371.96100	742.12317	1005.21008	97.85857	558.54370	1033.43213	300.03891	548.92944	1027.31067	195.21828	638.16821	837.71515	50.64621	620.99554	596.01007	92.83601	720.55988	685.53809	131.95052	553.13287	365.47018	97.74313	462.11047	185.05405	137.46454	539.72742	260.32654	172.17451	717.87177	807.24988	423.74496	811.52728	590.52130	392.05295	837.48785	754.28864	354.29578	837.12152	433.23709	397.33032	915.59479	192.26883	364.02435	880.71985	56.14713	299.87796	1180.94958	133.73601	348.79636	1099.90295	89.75021	286.42624	1086.27966	78.72679	400.78360	1038.40210	65.35715	385.89453	1041.30518	133.67993	334.56070	1140.24487	106.08540	295.27466	1130.81909	100.53494	398.17685	337.69116	73.77959	199.19722	649.37616	51.89343	157.04506	550.34528	35.57353	220.20816	541.16449	31.28847	100.44868	487.45193	31.05977	115.75229	526.78589	94.88531	170.61681	594.49365	33.73180	210.93355	587.75018	38.38702	107.24027	553.73657	1030.37146	247.62860	936.10504	330.94495	330.26022 
70	0.575	807.39093	1427.57251	233.38832	644.59564	1527.46838	240.99629	691.84460	1513.49463	399.95847	672.33893	1522.41235	105.87489	840.07965	1266.99573	237.13538	564.23932	1309.14587	250.24359	758.62976	992.88678	372.30786	751.31592	1003.38977	98.81770	567.84485	1031.67102	300.73965	558.03101	1025.60779	195.97568	647.28711	835.97528	51.29250	628.81250	594.92432	93.49510	728.63898	683.94415	132.58969	558.28864	365.22580	98.19105	464.50476	186.72453	138.92010	543.33521	260.09479	172.44612	729.14819	806.51288	424.52234	823.21674	589.83575	392.90311	848.85284	754.73352	355.50562	846.34161	432.22809	397.42929	919.63300	189.93353	362.91714	882.57214	56.67116	299.62976	1184.90942	125.73400	345.39990	1102.27356	83.43105	284.10101	1088.96851	72.49089	398.21930	1040.88647	60.87140	383.86230	1045.14014	128.66371	332.78333	1142.99939	98.87776	292.40659	1134.65320	93.70350	395.42154	338.84781	76.10914	199.57083	649.64960	51.21802	157.18469	551.00171	35.30731	220.09708	541.25360	31.32021	100.52555	487.73032	31.40784	116.00703	527.78113	95.14035	170.69453	594.70856	33.19360	211.05959	587.92224	38.16749	107.38390	562.93793	1028.63940	248.35767	942.88647	328.29971	329.46945 
71	0.583	816.49316	1426.68201	236.01895	653.39325	1526.07129	243.61002	700.55231	1511.34119	402.50162	681.34448	1521.64087	108.35852	849.42548	1266.16223	239.23529	573.33923	1307.56860	251.55853	768.40118	991.52930	372.84564	760.53705	1001.86743	99.67007	577.36548	1030.00513	301.77924	567.27618	1023.97644	196.90343	656.82837	834.12744	52.05019	637.33575	593.80750	94.70449	737.29828	682.37994	133.08205	564.12549	364.99527	99.08935	466.87256	187.98756	139.53632	547.81091	260.45490	173.41656	740.50000	805.93500	425.05698	833.89862	588.74347	393.60135	860.55505	755.24512	356.75821	855.09052	431.01413	397.63806	924.33417	187.90315	362.26569	884.48895	57.37167	299.62869	1188.51013	118.81659	342.27051	1104.36926	77.81784	281.94043	1091.67883	67.34811	395.92789	1043.48889	57.03178	382.11816	1048.69519	124.33082	331.10843	1145.54651	92.56551	289.82043	1138.19177	87.91537	392.93588	339.87729	79.00575	199.91098	650.00519	50.60305	156.75613	551.16553	35.51497	220.23096	541.27032	31.38998	100.64375	487.61807	32.20424	116.46985	529.20410	95.44699	171.12425	595.11853	33.10275	210.85880	588.01123	37.90307	107.19643	572.32086	1026.99084	249.34132	949.46820	325.95337	329.10434 
72	0.592	825.66748	1425.91443	238.58372	662.13251	1524.90125	246.36328	709.26062	1509.28381	405.14334	690.24420	1521.06934	110.90315	858.87720	1265.53088	241.17609	582.51318	1306.19666	252.99971	778.43469	990.87854	373.53830	769.72491	1000.16534	100.38679	587.04370	1028.56531	302.99335	576.64642	1022.55341	197.93028	666.79681	832.19073	52.92761	645.75006	592.83569	95.56743	746.52136	681.19897	133.51643	569.95496	364.87955	100.12048	469.53378	189.69191	140.41534	552.54773	260.85254	173.83272	752.41840	805.28003	424.92026	843.54541	587.39636	394.16019	872.53308	755.86249	358.18295	863.40924	429.70828	397.92108	929.90735	186.05228	361.99966	887.08087	58.37749	300.16019	1191.84204	111.53715	339.73010	1106.51880	72.04055	280.38986	1094.40479	61.90902	394.30453	1046.22058	53.77567	381.27835	1052.05371	119.62452	329.88028	1147.90137	85.97523	287.75119	1141.44312	81.68644	390.94235	341.06854	82.53228	200.12717	650.59442	49.90776	156.78592	551.55176	35.68837	220.12383	541.43640	31.48217	100.82684	487.37982	32.62736	117.37887	530.49359	96.24480	170.81473	595.48785	32.90705	210.82426	588.57104	37.66830	107.14722	581.84509	1025.55933	250.46181	956.56665	324.16818	329.30875 
73	0.600	834.86816	1425.25964	240.94212	670.81409	1523.84619	249.13528	718.13031	1507.30286	407.91116	698.83411	1520.57935	113.56217	868.39539	1265.15063	243.03490	591.70044	1304.96338	254.57907	788.59900	990.47528	374.20901	778.90448	998.68597	101.11512	596.82306	1027.25293	304.22052	586.10370	1021.20074	199.18829	677.19025	830.18890	53.92960	655.23633	591.21167	95.55387	756.18512	680.27631	133.86597	576.38617	364.70346	101.18969	472.71201	192.02249	141.49820	557.26752	261.98593	174.62282	763.93237	805.05200	424.63553	852.06073	585.92719	394.54245	884.81952	756.16803	359.66165	871.27057	428.27704	398.21579	935.59326	184.28200	362.25513	889.10382	59.78237	300.44186	1195.56897	102.77020	338.37567	1108.99377	65.64967	279.64655	1097.12573	56.31501	393.32584	1048.93921	49.69907	380.64191	1056.03687	114.93633	329.10233	1150.66406	78.32700	286.68347	1144.54126	74.60139	389.91693	342.84760	86.86431	200.72276	651.09515	49.30528	156.87650	552.06635	35.92522	220.01878	541.53314	31.66312	100.92944	488.22769	33.20674	118.26873	532.42780	96.62679	171.24884	595.80817	32.76891	210.87465	589.02191	37.52627	107.18880	591.46338	1024.22681	251.70439	963.46759	322.67325	329.37830 
